PathFileType	4	(X/Y/Z)	C:\Users\86182\Documents\cortex\Trimmed_M4_L4.trc
DataRate	CameraRate	NumFrames	NumMarkers	Units	OrigDataRate	OrigDataStartFrame	OrigNumFrames
100.00	100.00	       126	2	mm	100.00	361	       901
Frame#	Time	gripper			box			
		X1	Y1	Z1	X2	Y2	Z2	

361	3.600	276.13818	151.12038	289.78149	277.27188	149.04361	154.44485	
362	3.610	276.15295	151.12074	290.11386	277.32678	149.03600	154.77695	
363	3.620	276.16946	151.11908	290.42688	277.38477	149.02647	155.08792	
364	3.630	276.19019	151.11681	290.72433	277.43811	149.01698	155.37775	
365	3.640	276.21478	151.11559	291.00919	277.47849	149.01057	155.64609	
366	3.650	276.24057	151.11659	291.28027	277.49966	149.01016	155.89185	
367	3.660	276.26443	151.12090	291.53192	277.49991	149.01692	156.11459	
368	3.670	276.28412	151.12909	291.75677	277.48206	149.03012	156.31628	
369	3.680	276.29904	151.14087	291.94879	277.45264	149.04796	156.50070	
370	3.690	276.30939	151.15550	292.10590	277.42014	149.06834	156.67209	
371	3.700	276.31473	151.17236	292.23041	277.39249	149.08948	156.83359	
372	3.710	276.31430	151.19066	292.32776	277.37433	149.11057	156.98602	
373	3.720	276.30862	151.20906	292.40448	277.36612	149.13213	157.12781	
374	3.730	276.29956	151.22581	292.46686	277.36526	149.15526	157.25565	
375	3.740	276.28955	151.23929	292.51990	277.36841	149.18034	157.36595	
376	3.750	276.28046	151.24832	292.56647	277.37366	149.20592	157.45612	
377	3.760	276.27255	151.25237	292.60770	277.38116	149.22891	157.52509	
378	3.770	276.26492	151.25151	292.64355	277.39197	149.24567	157.57336	
379	3.780	276.25671	151.24669	292.67358	277.40665	149.25352	157.60294	
380	3.790	276.24838	151.23969	292.69724	277.42545	149.25188	157.61676	
381	3.800	276.24130	151.23259	292.71414	277.44818	149.24203	157.61835	
382	3.810	276.23669	151.22704	292.72449	277.47379	149.22629	157.61124	
383	3.820	276.23486	151.22372	292.72891	277.50006	149.20688	157.59869	
384	3.830	276.23526	151.22255	292.72870	277.52444	149.18605	157.58360	
385	3.840	276.23718	151.22307	292.72522	277.54459	149.16606	157.56854	
386	3.850	276.24002	151.22476	292.72000	277.55945	149.14902	157.55548	
387	3.860	276.24329	151.22702	292.71454	277.56931	149.13631	157.54550	
388	3.870	276.24658	151.22932	292.71005	277.57581	149.12837	157.53882	
389	3.880	276.24963	151.23131	292.70740	277.58078	149.12483	157.53510	
390	3.890	276.25217	151.23276	292.70657	277.58508	149.12451	157.53351	
391	3.900	276.25357	151.23347	292.70679	277.58829	149.12579	157.53296	
392	3.910	276.25308	151.23335	292.70648	277.58954	149.12733	157.53250	
393	3.920	276.25003	151.23248	292.70364	277.58792	149.12822	157.53102	
394	3.930	276.24448	151.23131	292.69611	277.58255	149.12791	157.52744	
395	3.940	276.23734	151.23059	292.68250	277.57281	149.12614	157.52078	
396	3.950	276.22995	151.23103	292.66272	277.55893	149.12302	157.51083	
397	3.960	276.22327	151.23280	292.63831	277.54230	149.11900	157.49820	
398	3.970	276.21780	151.23552	292.61234	277.52542	149.11485	157.48462	
399	3.980	276.21417	151.23866	292.58856	277.51120	149.11137	157.47241	
400	3.990	276.21310	151.24194	292.57043	277.50247	149.10930	157.46390	
401	4.000	276.21481	151.24496	292.56012	277.50085	149.10895	157.46057	
402	4.010	276.21844	151.24724	292.55801	277.50592	149.10986	157.46271	
403	4.020	276.22253	151.24828	292.56293	277.51523	149.11089	157.46916	
404	4.030	276.22586	151.24796	292.57239	277.52591	149.11098	157.47795	
405	4.040	276.22787	151.24666	292.58347	277.53595	149.10985	157.48688	
406	4.050	276.22882	151.24506	292.59332	277.54416	149.10788	157.49409	
407	4.060	276.22916	151.24388	292.59967	277.54993	149.10574	157.49835	
408	4.070	276.22937	151.24367	292.60120	277.55310	149.10406	157.49908	
409	4.080	276.22983	151.24461	292.59787	277.55368	149.10307	157.49637	
410	4.090	276.23050	151.24641	292.59094	277.55176	149.10274	157.49104	
411	4.100	276.23096	151.24838	292.58264	277.54745	149.10294	157.48462	
412	4.110	276.23056	151.24973	292.57538	277.54129	149.10361	157.47882	
413	4.120	276.22931	151.25002	292.57092	277.53455	149.10478	157.47519	
414	4.130	276.22751	151.24925	292.57025	277.52911	149.10663	157.47455	
415	4.140	276.22571	151.24771	292.57318	277.52658	149.10915	157.47675	
416	4.150	276.22409	151.24577	292.57858	277.52701	149.11205	157.48083	
417	4.160	276.22287	151.24391	292.58447	277.52933	149.11491	157.48535	
418	4.170	276.22223	151.24266	292.58887	277.53238	149.11755	157.48886	
419	4.180	276.22241	151.24243	292.59045	277.53546	149.12000	157.49048	
420	4.190	276.22360	151.24338	292.58878	277.53809	149.12221	157.49005	
421	4.200	276.22571	151.24535	292.58450	277.54010	149.12389	157.48828	
422	4.210	276.22827	151.24777	292.57910	277.54147	149.12457	157.48619	
423	4.220	276.23065	151.24994	292.57452	277.54257	149.12383	157.48505	
424	4.230	276.23230	151.25121	292.57245	277.54391	149.12137	157.48578	
425	4.240	276.23288	151.25119	292.57397	277.54596	149.11725	157.48877	
426	4.250	276.23221	151.24979	292.57907	277.54895	149.11188	157.49353	
427	4.260	276.23056	151.24734	292.58667	277.55261	149.10605	157.49887	
428	4.270	276.22852	151.24460	292.59479	277.55637	149.10083	157.50339	
429	4.280	276.22690	151.24245	292.60110	277.55957	149.09738	157.50586	
430	4.290	276.22632	151.24156	292.60388	277.56152	149.09636	157.50574	
431	4.300	276.22684	151.24211	292.60260	277.56171	149.09784	157.50311	
432	4.310	276.22815	151.24371	292.59814	277.55984	149.10138	157.49860	
433	4.320	276.22961	151.24570	292.59216	277.55621	149.10625	157.49287	
434	4.330	276.23068	151.24744	292.58649	277.55161	149.11157	157.48688	
435	4.340	276.23093	151.24840	292.58249	277.54703	149.11653	157.48172	
436	4.350	276.23026	151.24838	292.58099	277.54337	149.12051	157.47841	
437	4.360	276.22876	151.24738	292.58215	277.54120	149.12323	157.47748	
438	4.370	276.22659	151.24556	292.58548	277.54053	149.12466	157.47873	
439	4.380	276.22394	151.24330	292.58990	277.54108	149.12489	157.48157	
440	4.390	276.22131	151.24110	292.59396	277.54230	149.12404	157.48517	
441	4.400	276.21939	151.23961	292.59647	277.54385	149.12238	157.48883	
442	4.410	276.21893	151.23936	292.59656	277.54556	149.12030	157.49185	
443	4.420	276.22037	151.24062	292.59412	277.54718	149.11829	157.49380	
444	4.430	276.22363	151.24323	292.58957	277.54849	149.11664	157.49457	
445	4.440	276.22812	151.24667	292.58392	277.54947	149.11533	157.49442	
446	4.450	276.23282	151.25018	292.57858	277.55014	149.11389	157.49399	
447	4.460	276.23676	151.25291	292.57513	277.55069	149.11194	157.49397	
448	4.470	276.23923	151.25427	292.57462	277.55099	149.10948	157.49487	
449	4.480	276.23996	151.25409	292.57721	277.55093	149.10699	157.49673	
450	4.490	276.23907	151.25264	292.58203	277.55038	149.10521	157.49890	
451	4.500	276.23709	151.25047	292.58746	277.54904	149.10478	157.50023	
452	4.510	276.23462	151.24828	292.59195	277.54669	149.10588	157.49979	
453	4.520	276.23215	151.24652	292.59430	277.54324	149.10812	157.49728	
454	4.530	276.22995	151.24542	292.59427	277.53903	149.11082	157.49297	
455	4.540	276.22821	151.24496	292.59222	277.53467	149.11345	157.48743	
456	4.550	276.22705	151.24507	292.58896	277.53091	149.11563	157.48163	
457	4.560	276.22668	151.24562	292.58545	277.52872	149.11729	157.47684	
458	4.570	276.22702	151.24641	292.58246	277.52878	149.11845	157.47427	
459	4.580	276.22772	151.24719	292.58060	277.53104	149.11897	157.47461	
460	4.590	276.22839	151.24763	292.58008	277.53467	149.11865	157.47763	
461	4.600	276.22870	151.24762	292.58087	277.53876	149.11752	157.48248	
462	4.610	276.22867	151.24725	292.58252	277.54263	149.11584	157.48785	
463	4.620	276.22879	151.24701	292.58405	277.54605	149.11406	157.49263	
464	4.630	276.22968	151.24739	292.58432	277.54895	149.11255	157.49605	
465	4.640	276.23148	151.24864	292.58270	277.55133	149.11165	157.49786	
466	4.650	276.23376	151.25049	292.57947	277.55316	149.11148	157.49820	
467	4.660	276.23578	151.25227	292.57578	277.55435	149.11200	157.49745	
468	4.670	276.23682	151.25339	292.57303	277.55469	149.11293	157.49625	
469	4.680	276.23666	151.25346	292.57230	277.55411	149.11392	157.49524	
470	4.690	276.23532	151.25241	292.57404	277.55270	149.11462	157.49495	
471	4.700	276.23297	151.25038	292.57800	277.55087	149.11485	157.49553	
472	4.710	276.23013	151.24783	292.58334	277.54910	149.11467	157.49673	
473	4.720	276.22754	151.24541	292.58862	277.54761	149.11432	157.49811	
474	4.730	276.22577	151.24368	292.59247	277.54633	149.11409	157.49918	
475	4.740	276.22513	151.24307	292.59384	277.54514	149.11427	157.49960	
476	4.750	276.22586	151.24377	292.59232	277.54398	149.11501	157.49915	
477	4.760	276.22800	151.24574	292.58807	277.54282	149.11629	157.49774	
478	4.770	276.23129	151.24864	292.58228	277.54193	149.11798	157.49544	
479	4.780	276.23502	151.25174	292.57648	277.54160	149.11972	157.49255	
480	4.790	276.23825	151.25427	292.57224	277.54190	149.12108	157.48967	
481	4.800	276.24048	151.25577	292.57050	277.54297	149.12170	157.48737	
482	4.810	276.24161	151.25612	292.57159	277.54489	149.12148	157.48615	
483	4.820	276.24191	151.25554	292.57507	277.54758	149.12036	157.48621	
484	4.830	276.24182	151.25446	292.57999	277.55078	149.11852	157.48740	
485	4.840	276.24170	151.25331	292.58514	277.55408	149.11632	157.48914	
486	4.850	276.24173	151.25241	292.58948	277.55701	149.11427	157.49081	
